<?xml version="1.0" encoding="UTF-8"?>
<svg width="220px" height="220px" viewBox="0 0 220 220" version="1.1" xmlns="http://www.w3.org/2000/svg" xmlns:xlink="http://www.w3.org/1999/xlink">
    <title>instagram-fill</title>
    <g id="第一版" stroke="none" stroke-width="1" fill="none" fill-rule="evenodd">
        <g id="图标和元素说明" transform="translate(-2485, -1917)" fill="#747DEC" fill-rule="nonzero">
            <g id="instagram-fill" transform="translate(2485, 1917)">
                <path d="M108.5,71 C88.4017254,71 72,87.4017254 72,107.5 C72,127.598275 88.4017254,144 108.5,144 C128.598275,144 145,127.598275 145,107.5 C145,87.4017254 128.598275,71 108.5,71 Z" id="路径"></path>
                <path d="M219.987719,110 C219.987719,94.8097369 220.12531,79.7570667 219.272249,64.5943221 C218.419189,46.9824228 214.401549,31.3518622 201.523087,18.4731609 C188.617108,5.5669409 173.014356,1.57674497 155.402785,0.723668594 C140.212804,-0.129407778 125.160414,0.0081851852 109.997952,0.0081851852 C94.8079718,0.0081851852 79.7555818,-0.129407778 64.5931196,0.723668594 C46.9815482,1.57674497 31.3512785,5.59445949 18.4728169,18.4731609 C5.56683726,31.3793808 1.57671561,46.9824228 0.723655121,64.5943221 C-0.129405369,79.7845853 0.00818503282,94.8372555 0.00818503282,110 C0.00818503282,125.162745 -0.129405369,140.242933 0.723655121,155.405678 C1.57671561,173.017577 5.59435534,188.648138 18.4728169,201.526839 C31.3787966,214.433059 46.9815482,218.423255 64.5931196,219.276331 C79.7830999,220.129408 94.8354899,219.991815 109.997952,219.991815 C125.187932,219.991815 140.240322,220.129408 155.402785,219.276331 C173.014356,218.423255 188.644626,214.405541 201.523087,201.526839 C214.429067,188.620619 218.419189,173.017577 219.272249,155.405678 C220.152828,140.242933 219.987719,125.190263 219.987719,110 Z M109.970434,166.440634 C78.7374129,166.440634 53.5308513,141.233603 53.5308513,110 C53.5308513,78.7663973 78.7374129,53.5593665 109.970434,53.5593665 C141.203455,53.5593665 166.410017,78.7663973 166.410017,110 C166.410017,141.233603 141.203455,166.440634 109.970434,166.440634 Z M168.721536,64.4292106 C161.429244,64.4292106 155.540375,58.5402317 155.540375,51.2478047 C155.540375,43.9553776 161.429244,38.0663988 168.721536,38.0663988 C176.013827,38.0663988 181.902696,43.9553776 181.902696,51.2478047 C181.875178,58.5677503 176.013827,64.4292106 168.721536,64.4292106 Z" id="形状"></path>
            </g>
        </g>
    </g>
</svg>