<?xml version="1.0" encoding="UTF-8"?>
<svg width="200px" height="200px" viewBox="0 0 200 200" version="1.1" xmlns="http://www.w3.org/2000/svg" xmlns:xlink="http://www.w3.org/1999/xlink">
    <title>下载</title>
    <g id="第一版" stroke="none" stroke-width="1" fill="none" fill-rule="evenodd">
        <g id="图标和元素说明" transform="translate(-370, -1629)" fill="#1D2A3B" fill-rule="nonzero">
            <g id="下载" transform="translate(370, 1629)">
                <path d="M150,33.3333334 C140.555555,33.3333334 133.333333,40.5555557 133.333333,50 C133.333333,59.4444443 140.555556,66.6666666 150,66.6666666 C159.444444,66.6666666 166.666667,74.4444443 166.666667,83.3333334 L166.666667,150 C166.666667,158.888889 158.888889,166.666667 150,166.666667 L50,166.666667 C40.5555555,166.666667 33.3333334,158.888889 33.3333334,150 L33.3333334,82.7777777 C33.3333334,73.8888889 41.1111111,66.1111111 50,66.1111111 C59.4444445,66.1111111 66.6666666,58.8888889 66.6666666,49.4444445 C66.6666666,40.0000002 59.4444443,32.7777777 50,32.7777777 C22.7777777,32.7777777 0,55 0,82.7777777 L0,150 C0,177.777778 22.2222223,200 50,200 L150,200 C177.222222,200 200,177.777778 200,150 L200,82.7777777 C200,55.5555555 177.777778,33.3333334 150,33.3333334 Z" id="路径"></path>
                <path d="M56.1111111,82.2222223 L45.5555555,92.7777777 C43.3333332,95 43.3333332,98.3333332 45.5555555,100.555555 L95,150 C96.6666666,151.666667 98.8888888,152.222222 101.111111,151.111111 C102.777778,151.666667 105,151.111111 106.666667,149.444445 L156.111111,100 C158.333333,97.7777777 158.333333,94.4444445 156.111111,92.2222223 L145.555555,81.6666666 C143.333333,79.4444443 140,79.4444443 137.777778,81.6666666 L116.666667,102.777778 L116.666667,5.55555547 C116.666667,2.22222207 114.444444,0 111.111111,0 L88.8888888,0 C86.1111111,0 83.3333334,2.22222227 83.3333334,5.55555547 L83.3333334,101.111111 L63.8888888,81.6666666 C62.2222223,80 58.3333334,80 56.1111111,82.2222223 Z" id="路径"></path>
            </g>
        </g>
    </g>
</svg>