<?xml version="1.0" encoding="UTF-8"?>
<svg width="138px" height="175.2px" viewBox="0 0 138 175.2" version="1.1" xmlns="http://www.w3.org/2000/svg" xmlns:xlink="http://www.w3.org/1999/xlink">
    <title>人民币 - 高亮</title>
    <g id="第一版" stroke="none" stroke-width="1" fill="none" fill-rule="evenodd">
        <g id="图标和元素说明" transform="translate(-429, -335)">
            <g id="图标高亮" transform="translate(310, 258)">
                <rect id="矩形" stroke="#1D2A3B" fill="#FFFFFF" x="0.5" y="0.5" width="1345" height="306"></rect>
                <path d="M130.8,214.4 C127.2,214.133333 124.433333,212.633333 122.5,209.9 C120.566667,207.166667 119.4,204.133333 119,200.8 C119.4,197.466667 120.566667,194.733333 122.5,192.6 C124.433333,190.466667 127.2,189.266667 130.8,189 L169.4,189 L169.4,176.4 L130.8,176.2 C127.2,175.933333 124.433333,174.666667 122.5,172.4 C120.566667,170.133333 119.4,167.266667 119,163.8 C119.4,160.466667 120.566667,157.733333 122.5,155.6 C124.433333,153.466667 127.2,152.266667 130.8,152 L159.6,152 L132.8,104.8 C131.466667,103.2 130.2,101.166667 129,98.7 C127.8,96.2333333 127.266667,93.5333333 127.4,90.6 C128.066667,86.8666667 129.4,83.8333333 131.4,81.5 C133.4,79.1666667 137.133333,77.6666667 142.6,77 C145.8,77.2666667 148.666667,78.3666667 151.2,80.3 C153.733333,82.2333333 155.8,84.3333333 157.4,86.6 L187.8,142.2 L221.2,86.2 C222.8,83.9333333 224.866667,81.9333333 227.4,80.2 C229.933333,78.4666667 232.8,77.4 236,77 C238,77.1333333 239.833333,77.4 241.5,77.8 C243.166667,78.2 244.633333,78.8666667 245.9,79.8 C247.166667,80.7333333 248.233333,82.0666667 249.1,83.8 C249.966667,85.5333333 250.6,87.8 251,90.6 C251,94.4666667 249.666667,98.1333333 247,101.6 L216,152 L245.4,152 C248.866667,152.266667 251.6,153.466667 253.6,155.6 C255.6,157.733333 256.733333,160.466667 257,163.8 C256.733333,167.266667 255.566667,170.2 253.5,172.6 C251.433333,175 248.666667,176.333333 245.2,176.6 L207,176.8 L207,189 L245.4,189 C248.866667,189.266667 251.6,190.6 253.6,193 C255.6,195.4 256.733333,198.266667 257,201.6 C256.733333,205.066667 255.6,207.966667 253.6,210.3 C251.6,212.633333 248.866667,213.933333 245.4,214.2 L207,214 L207,235.2 C206.466667,246.533333 200.266667,252.2 188.4,252.2 C182.533333,252.2 177.966667,250.8 174.7,248 C171.433333,245.2 169.666667,240.933333 169.4,235.2 L169.4,214.4 L130.8,214.4 Z" id="路径" fill="#1D2A3B" fill-rule="nonzero"></path>
            </g>
        </g>
    </g>
</svg>