<?xml version="1.0" encoding="UTF-8"?>
<svg width="200px" height="200px" viewBox="0 0 200 200" version="1.1" xmlns="http://www.w3.org/2000/svg" xmlns:xlink="http://www.w3.org/1999/xlink">
    <title>保存</title>
    <g id="第一版" stroke="none" stroke-width="1" fill="none" fill-rule="evenodd">
        <g id="图标和元素说明" transform="translate(-1152, -1629)" fill="#000000" fill-rule="nonzero">
            <g id="功能图标" transform="translate(370, 1629)">
                <g id="保存" transform="translate(782, 0)">
                    <path d="M170,0 L30,0 C13.4314575,0 0,13.4314575 0,30 L0,170 C0.0412241936,186.551437 13.4485632,199.958776 30,200 L170,200 C186.551437,199.958776 199.958776,186.551437 200,170 L200,30 C200,13.4314575 186.568542,0 170,0 Z M151.1875,13.925 L151.1875,84.375 L48.825,84.375 L48.825,13.925 L151.1875,13.925 L151.1875,13.925 Z M186.075,170 C186.065066,174.253413 184.365871,178.32867 181.351221,181.329254 C178.336572,184.329839 174.253413,186.009957 170,186.000044 L30,186.000044 C25.746587,186.009957 21.6634285,184.329839 18.6487787,181.329254 C15.6341289,178.32867 13.934934,174.253413 13.925,170 L13.925,30 C13.925,21.125 21.125,13.9375 30,13.925 L34.875,13.925 L34.875,91.375 C34.874973,93.21814 35.6097145,94.9852478 36.9165258,96.2850205 C38.2233371,97.5847933 39.994387,98.3099809 41.8375,98.3 L158.1375,98.3 C159.982772,98.3133236 161.757045,97.5896136 163.066569,96.2894773 C164.376092,94.9893409 165.112548,93.2203202 165.1125,91.375 L165.1125,13.925 L170,13.925 C178.875,13.925 186.0625,21.125 186.075,30 L186.075,170 Z M126.875,69.425 C130.726341,69.4043675 133.8375,66.2763958 133.8375,62.425 L133.8375,33.7125 C133.67932,29.9784844 130.606114,27.0327091 126.86875,27.0327091 C123.131386,27.0327091 120.05818,29.9784844 119.9,33.7125 L119.9,62.425 C119.9,66.2715509 123.003547,69.3975246 126.85,69.425 L126.875,69.425 Z M50,128.575 L150,128.575 C153.945384,128.575 157.14375,131.773366 157.14375,135.71875 C157.14375,139.664134 153.945384,142.8625 150,142.8625 L50,142.8625 C46.0546158,142.8625 42.85625,139.664134 42.85625,135.71875 C42.85625,131.773366 46.0546158,128.575 50,128.575 Z" id="形状"></path>
                </g>
            </g>
        </g>
    </g>
</svg>