<?xml version="1.0" encoding="UTF-8"?>
<svg width="162px" height="200px" viewBox="0 0 162 200" version="1.1" xmlns="http://www.w3.org/2000/svg" xmlns:xlink="http://www.w3.org/1999/xlink">
    <title>分享</title>
    <g id="第一版" stroke="none" stroke-width="1" fill="none" fill-rule="evenodd">
        <g id="图标和元素说明" transform="translate(-1459, -1629)">
            <g id="功能图标" transform="translate(370, 1629)"></g>
            <g id="分享" transform="translate(1459, 1629)" fill="#FED565" fill-rule="nonzero">
                <path d="M161.989605,74.7032726 C161.989605,70.2717312 159.980652,66.0218273 156.404983,62.889109 C152.829315,59.7563907 147.980046,57.9976624 142.924666,58 L111.957136,58 C110.640732,58.0050972 109.576605,58.9419834 109.576617,60.0959525 L109.576617,72.6073999 C109.573838,73.1640031 109.824845,73.6985129 110.273832,74.0920946 C110.722819,74.4856762 111.332573,74.7057084 111.967531,74.7032726 L138.163629,74.7032726 C140.790706,74.7082842 142.918949,76.5739001 142.924666,78.8767925 L142.924666,179.114172 C142.918949,181.417065 140.790706,183.282681 138.163629,183.287693 L23.81558,183.287693 C21.1844513,183.282668 19.0545369,181.41151 19.0545431,179.10506 L19.0545431,78.8676799 C19.0545401,77.759213 19.5575747,76.6962785 20.4526919,75.9133292 C21.3478091,75.1303799 22.5614697,74.6917397 23.8259754,74.69416 L50.0220739,74.69416 C51.3425391,74.69416 52.4129876,73.7558059 52.4129876,72.5982876 L52.4129876,60.0777275 C52.4074976,59.521861 52.1503179,58.9906754 51.6980303,58.6010364 C51.2457427,58.2113974 50.6354001,57.9952254 50.0012832,58 L19.0545431,58 C8.53100954,58 0,65.4783541 0,74.7032726 L0,183.296805 C0,187.726767 2.00752646,191.975289 5.58094647,195.107746 C9.15436648,198.240202 14.0009641,200 19.0545431,200 L142.935062,200 C147.990441,200.002415 152.83971,198.243687 156.415379,195.110969 C159.991047,191.97825 162,187.728346 162,183.296805 L162,74.7032726 L161.989605,74.7032726 Z" id="路径"></path>
                <path d="M67.7250012,92.4023635 C67.7260348,99.3601121 74.1438884,105 82.0603546,105 C89.9768209,105 96.3946745,99.3601121 96.395708,92.4023635 L96.395708,48.2911343 C96.4014483,47.1307652 97.4733514,46.1927701 98.7936219,46.1927812 L115.516463,46.1927812 C119.367667,46.1691417 122.825821,44.1146657 124.286355,40.9826218 C125.746889,37.8505779 124.923937,34.2539943 122.199344,31.8616715 L88.7536616,2.45723953 C85.0210985,-0.819079842 78.9745025,-0.819079842 75.2419394,2.45723953 L41.7962565,31.8616715 C39.0575181,34.2717247 38.2451993,37.8965186 39.7395321,41.0393516 C41.233865,44.1821846 44.7391683,46.2211895 48.6146719,46.2019444 L65.3375132,46.2019444 C65.9734795,46.2019443 66.5833982,46.4239855 67.0330943,46.8192215 C67.4827904,47.2144574 67.735427,47.7505124 67.735427,48.3094604 L67.735427,92.4023635 L67.7250012,92.4023635 Z" id="路径"></path>
            </g>
        </g>
    </g>
</svg>