<?xml version="1.0" encoding="UTF-8"?>
<svg width="213.722549px" height="199.996684px" viewBox="0 0 213.722549 199.996684" version="1.1" xmlns="http://www.w3.org/2000/svg" xmlns:xlink="http://www.w3.org/1999/xlink">
    <title>地图</title>
    <g id="第一版" stroke="none" stroke-width="1" fill="none" fill-rule="evenodd">
        <g id="图标和元素说明" transform="translate(-882.0016, -1629.0033)" fill="#000000" fill-rule="nonzero">
            <g id="功能图标" transform="translate(370, 1629)">
                <g id="地图" transform="translate(512.0016, 0.0033)">
                    <path d="M206.26618,199.996684 L7.47189956,199.996684 C5.08775532,199.996684 2.84693064,198.858157 1.4400238,196.933382 C0.0331169523,195.008608 -0.371015942,192.528077 0.352174563,190.256262 L27.1520351,105.985424 C28.1355792,102.895641 30.9993465,100.792593 34.2418662,100.778907 L83.4222757,100.574632 L83.4820634,115.521571 L39.7423396,115.700934 L17.6906232,185.049746 L196.251731,185.049746 L175.505381,115.142915 L132.029719,115.297367 L131.969932,100.350428 L181.025783,100.146153 L181.055677,100.146153 C184.36387,100.146153 187.278511,102.320853 188.220243,105.492175 L213.405834,190.370856 C214.085603,192.631136 213.657674,195.0797 212.25157,196.975438 C210.845467,198.871176 208.62646,199.991264 206.26618,199.996684 Z" id="路径"></path>
                    <path d="M71.2455033,189.100366 L61.3705593,187.750159 L66.2881021,151.822702 L21.9455183,151.907401 L21.9455183,141.942775 L71.9878679,141.848111 C73.4276906,141.848111 74.7972946,142.470171 75.7438005,143.555167 C76.6903065,144.640163 77.1211558,146.081574 76.9253398,147.508019 L71.2455033,189.100366 Z M109.609312,192.289046 L99.6446863,192.12463 L100.098077,164.672086 C100.144298,161.953564 102.361475,159.77408 105.080389,159.774473 L192.524961,159.679809 L192.524961,169.644434 L109.973021,169.734116 L109.609312,192.289046 Z M138.790718,144.100117 C136.039062,144.100117 133.808405,141.869459 133.808405,139.117804 C133.808405,136.366149 136.039062,134.135491 138.790718,134.135491 L190.382567,134.015916 C193.134222,134.015916 195.36488,136.246573 195.36488,138.998228 C195.36488,141.749884 193.134222,143.980541 190.382567,143.980541 L138.790718,144.100117 L138.790718,144.100117 Z M106.619924,146.187706 C104.472388,146.187706 102.428645,145.26382 101.00984,143.651709 C100.511609,143.07376 88.3996064,129.292683 76.0982759,111.934305 C58.7548451,87.4362734 50.3197896,69.2358847 50.3197896,56.2968185 C50.3216209,25.2044078 75.5275133,0 106.619924,0 C137.712335,0 162.918227,25.2044078 162.920059,56.2968185 C162.920059,69.2508318 154.485003,87.4362734 137.131608,111.939288 C124.840242,129.297665 112.718275,143.078743 112.220044,143.656691 C110.802625,145.264346 108.763199,146.186079 106.619924,146.187706 Z M106.619924,14.9436222 C83.791429,14.9683358 65.2914414,33.4683234 65.2667279,56.2968185 C65.2667279,61.6926633 68.2561156,74.9605623 88.2302076,103.195329 C95.0759054,112.865998 101.981391,121.525257 106.619924,127.140324 C111.253475,121.525257 118.163943,112.861016 125.009641,103.195329 C144.983733,74.940633 147.97312,61.6926633 147.97312,56.2968185 C147.948407,33.4683234 129.448419,14.9683359 106.619924,14.9436222 L106.619924,14.9436222 Z" id="形状"></path>
                    <path d="M106.619924,74.940633 C94.8786107,74.940633 85.3603955,65.4224178 85.3603955,53.6811043 C85.3603955,41.9397908 94.8786107,32.4215756 106.619924,32.4215756 C118.361238,32.4215756 127.879453,41.9397908 127.879453,53.6811043 C127.868466,65.4178638 118.356684,74.929646 106.619924,74.940633 Z M106.619924,42.3911836 C102.051562,42.3911836 97.9330307,45.1430984 96.1847943,49.3637144 C94.4365579,53.5843305 95.4029019,58.4424697 98.6332216,61.6727894 C101.863541,64.903109 106.721681,65.8694529 110.942297,64.1212165 C115.162913,62.37298 117.914837,58.2544484 117.914837,53.6860865 C117.918794,50.6869861 116.730868,47.8092179 114.612519,45.686197 C112.49417,43.5631761 109.619026,42.3689128 106.619924,42.3662719 L106.619924,42.3911836 Z" id="形状"></path>
                </g>
            </g>
        </g>
    </g>
</svg>