<?xml version="1.0" encoding="UTF-8"?>
<svg width="234.962406px" height="200px" viewBox="0 0 234.962406 200" version="1.1" xmlns="http://www.w3.org/2000/svg" xmlns:xlink="http://www.w3.org/1999/xlink">
    <title>多云 - 高亮</title>
    <g id="第一版" stroke="none" stroke-width="1" fill="none" fill-rule="evenodd">
        <g id="图标和元素说明" transform="translate(-1333, -322)">
            <g id="图标高亮" transform="translate(310, 258)">
                <rect id="矩形" stroke="#1D2A3B" fill="#FFFFFF" x="0.5" y="0.5" width="1345" height="306"></rect>
                <g id="多云" transform="translate(1023, 64)" fill="#000000" fill-rule="nonzero">
                    <path d="M172.368421,56.0150375 C170.112782,58.2706766 167.35589,59.3984961 164.097744,59.3984961 C160.839599,59.3984961 158.082707,58.2706766 155.827068,56.0150375 C153.446115,53.6340852 152.255639,50.8458646 152.255639,47.6503758 C152.255639,44.454887 153.446115,41.6666664 155.827068,39.2857141 L164.097744,31.0150373 C166.353383,28.7593982 169.110276,27.6315787 172.368421,27.6315787 C175.626567,27.6315787 178.383459,28.7593982 180.639098,31.0150373 C183.02005,33.2706764 184.210526,36.0275686 184.210526,39.2857141 C184.210526,42.5438595 183.02005,45.3634084 180.639098,47.7443607 L172.368421,56.0150375 Z M48.8721805,119.360902 C48.3709273,117.230577 47.9636592,115.037594 47.650376,112.781955 C47.3370928,110.526316 47.1804512,108.20802 47.1804512,105.827068 C47.1804512,97.8070174 48.7155389,90.2255638 51.7857143,83.0827066 C54.8558896,75.9398495 59.0538846,69.736842 64.3796992,64.4736842 C69.7055138,59.2105264 75.9085213,55.0438597 82.9887217,51.9736842 C90.0689221,48.9035087 97.681704,47.3684211 105.827068,47.3684211 C115.225564,47.3684211 123.840852,49.3734336 131.672932,53.3834586 C139.505012,57.3934836 146.115288,62.7819548 151.503759,69.5488721 C147.368421,70.426065 143.358396,71.3659146 139.473684,72.3684211 C135.588972,73.3709271 131.829574,74.8746865 128.195489,76.879699 C125.062657,74.3734334 121.64787,72.5877191 117.951128,71.5225562 C114.254386,70.4573934 110.213032,69.9248119 105.827068,69.9248119 C100.814536,69.9248119 96.1466164,70.8646615 91.8233082,72.7443607 C87.5,74.62406 83.7092732,77.1929823 80.4511277,80.4511277 C77.1929823,83.7092732 74.62406,87.5313283 72.7443607,91.9172932 C70.8646615,96.303258 69.9248119,100.939849 69.9248119,105.827068 C69.9248119,109.461153 70.3634084,112.656641 71.2406014,115.413534 C67.2305764,115.413534 63.4085212,115.758145 59.7744359,116.447368 C56.1403507,117.136591 52.5062654,118.107769 48.8721803,119.360902 L48.8721805,119.360902 Z M105.827068,35.3383459 C102.568922,35.3383459 99.7807017,34.179198 97.4624059,31.8609023 C95.14411,29.5426066 93.9849623,26.7543861 93.9849623,23.4962406 L93.9849623,11.8421053 C93.9849623,8.58395996 95.1441102,5.79573939 97.4624059,3.47744355 C99.7807016,1.15914772 102.568922,0 105.827068,0 C109.085213,0 111.873434,1.15914798 114.191729,3.47744355 C116.510025,5.79573913 117.669173,8.5839597 117.669173,11.8421053 L117.669173,23.4962406 C117.669173,26.7543859 116.510025,29.5426065 114.191729,31.8609023 C111.873434,34.1791982 109.085213,35.3383459 105.827068,35.3383459 Z M31.0150375,47.7443609 C28.6340852,45.3634086 27.443609,42.5438597 27.443609,39.2857143 C27.443609,36.0275688 28.6340852,33.2706766 31.0150375,31.0150375 C33.2706766,28.7593984 36.0275688,27.6315789 39.2857143,27.6315789 C42.5438597,27.6315789 45.300752,28.7593984 47.556391,31.0150375 L55.8270678,39.2857143 C58.2080201,41.6666666 59.3984963,44.4548872 59.3984963,47.650376 C59.3984963,50.8458648 58.2080201,53.6340854 55.8270678,56.0150377 C53.5714287,58.2706768 50.8145365,59.3984963 47.556391,59.3984963 C44.2982456,59.3984963 41.5413533,58.2706768 39.2857143,56.0150377 L31.0150375,47.7443609 Z M166.729323,82.330827 C175.75188,82.330827 184.398496,84.1165414 192.669173,87.6879699 C200.93985,91.2593984 208.20802,96.0839598 214.473684,102.161654 C220.739348,108.239348 225.720551,115.350877 229.417293,123.496241 C233.114035,131.641604 234.962406,140.225564 234.962406,149.24812 C234.962406,156.641604 234.14787,163.157895 232.518797,168.796993 C230.889724,174.43609 228.446115,180.200501 225.18797,186.090226 C223.558897,188.972431 221.741854,191.290727 219.736842,193.045113 C217.731829,194.799499 215.632832,196.209273 213.439849,197.274436 C211.246867,198.339599 209.022556,199.06015 206.766917,199.43609 C204.511278,199.81203 202.255639,200 200,200 L46.9924809,200 C44.2355887,200 41.4786964,199.091479 38.7218041,197.274436 C35.9649118,195.457394 33.4586461,193.170426 31.203007,190.413534 C28.947368,187.656641 27.1303254,184.586466 25.7518793,181.203007 C24.3734332,177.819549 23.6842102,174.561403 23.6842102,171.428571 C23.6842102,157.894737 27.380952,147.493734 34.7744357,140.225564 C42.1679195,132.957394 51.9423555,129.323308 64.0977439,129.323308 C66.9799494,129.323308 69.5488717,129.511278 71.8045109,129.887218 C74.0601501,130.263158 76.1591477,130.795739 78.1015035,131.484962 C80.0438594,132.174185 81.9862152,133.082707 83.9285711,134.210526 C85.870927,135.338346 87.9699245,136.654135 90.2255637,138.157895 C91.6040098,130.388471 94.360902,123.120301 98.4962404,116.353383 C102.631579,109.586466 107.988722,103.665413 114.567669,98.5902254 C121.146616,93.5150375 128.822055,89.5363408 137.593985,86.6541352 C146.365915,83.7719296 156.077694,82.330827 166.729323,82.330827 L166.729323,82.330827 Z M200,176.879699 C202.882205,176.002506 205.639098,173.245614 208.270677,168.609022 C210.902256,163.972431 212.218045,157.518797 212.218045,149.24812 C212.218045,142.982456 211.090226,137.155388 208.834587,131.766917 C206.578947,126.378446 203.446115,121.741855 199.43609,117.857143 C195.426065,113.972431 190.726817,110.933584 185.338346,108.740601 C179.949875,106.547619 174.122807,105.451128 167.857143,105.451128 C161.591479,105.451128 156.109023,105.952381 151.409775,106.954887 C146.710527,107.957393 142.606517,109.210526 139.097745,110.714286 C135.588973,112.218045 132.64411,113.909774 130.263158,115.789473 C127.882206,117.669173 125.877193,119.423559 124.248121,121.052631 C122.619048,122.807017 120.989975,124.874686 119.360903,127.255639 C117.73183,129.636591 116.290727,132.142857 115.037594,134.774436 C113.784462,137.406015 112.844612,140.037594 112.218046,142.669173 C111.591479,145.300752 111.466166,147.619047 111.842106,149.62406 C112.343359,153.258145 111.654136,156.328321 109.774437,158.834586 C107.894737,161.340852 105.482457,163.126566 102.537594,164.191729 C99.5927321,165.256892 96.4912283,165.507518 93.233083,164.943609 C89.9749377,164.379699 87.2180454,162.844611 84.9624062,160.338346 C82.7067671,157.83208 79.9812031,155.889724 76.7857145,154.511278 C73.5902258,153.132832 69.611529,152.443609 64.8496242,152.443609 C60.9649125,152.443609 57.8007521,152.725564 55.357143,153.289474 C52.9135339,153.853383 51.0025063,154.730576 49.6240604,155.921053 C48.2456144,157.111529 47.3057648,158.615288 46.8045115,160.432331 C46.3032583,162.249373 46.0526318,164.348371 46.0526318,166.729323 C46.0526318,168.734336 46.4912283,170.394737 47.3684213,171.710526 C48.2456143,173.026316 49.4047621,174.06015 50.8458648,174.81203 C52.2869676,175.56391 53.8847119,176.096491 55.6390979,176.409774 C57.3934838,176.723057 59.1478697,176.879699 60.9022557,176.879699 L200,176.879699 L200,176.879699 Z M35.150376,105.827068 C35.150376,109.085213 34.0225564,111.873433 31.7669174,114.191729 C29.5112783,116.510025 26.7543861,117.669173 23.4962406,117.669173 L11.6541354,117.669173 C8.39599004,117.669173 5.63909779,116.510025 3.38345859,114.191729 C1.1278194,111.873434 0,109.085213 0,105.827068 C0,102.568922 1.12781966,99.8120299 3.38345859,97.5563908 C5.63909753,95.3007518 8.39598978,94.1729322 11.6541354,94.1729322 L23.4962406,94.1729322 C26.7543859,94.1729322 29.5112782,95.3007518 31.7669174,97.5563908 C34.0225566,99.8120299 35.150376,102.568922 35.150376,105.827068 Z" id="形状"></path>
                </g>
            </g>
        </g>
    </g>
</svg>