<?xml version="1.0" encoding="UTF-8"?>
<svg width="227px" height="227px" viewBox="0 0 227 227" version="1.1" xmlns="http://www.w3.org/2000/svg" xmlns:xlink="http://www.w3.org/1999/xlink">
    <title>形状</title>
    <g id="第一版" stroke="none" stroke-width="1" fill="none" fill-rule="evenodd">
        <g id="图标和元素说明" transform="translate(-2490, -2194)" fill="#BD2626" fill-rule="nonzero">
            <path d="M2683.93922,2227.09874 C2695.04625,2238.21852 2703.33314,2250.72828 2708.79989,2264.62801 C2714.26663,2278.52775 2717,2292.77497 2717,2307.36969 C2717,2321.96441 2714.26663,2336.21163 2708.79989,2350.11137 C2703.33314,2364.0111 2695.04625,2376.52086 2683.93922,2387.64064 C2672.83219,2398.76043 2660.33677,2407.10027 2646.45298,2412.66016 C2632.56919,2418.22005 2618.3383,2421 2603.76032,2421 C2589.18234,2421 2574.90807,2418.22005 2560.9375,2412.66016 C2546.96693,2407.10027 2534.42813,2398.76043 2523.3211,2387.64064 C2512.21407,2376.52086 2503.88379,2364.0111 2498.33028,2350.11137 C2492.77676,2336.21163 2490,2321.96441 2490,2307.36969 C2490,2292.77497 2492.77676,2278.52775 2498.33028,2264.62801 C2503.88379,2250.72828 2512.21407,2238.21852 2523.3211,2227.09874 C2534.42813,2215.97895 2546.96693,2207.68255 2560.9375,2202.20953 C2574.90807,2196.73651 2589.18234,2194 2603.76032,2194 C2618.3383,2194 2632.56919,2196.73651 2646.45298,2202.20953 C2660.33677,2207.68255 2672.83219,2215.97895 2683.93922,2227.09874 Z M2656.13688,2359.51351 C2659.76492,2355.85586 2661.36299,2351.67568 2660.93108,2346.97297 C2660.49917,2342.27027 2658.46919,2338.09009 2654.84116,2334.43243 L2627.63087,2307 L2654.84116,2279.56757 C2658.46919,2275.90991 2660.49917,2271.72973 2660.93108,2267.02703 C2661.36299,2262.32432 2659.76492,2258.14414 2656.13688,2254.48649 C2652.50885,2250.82883 2648.14656,2249 2643.05003,2249 C2637.9535,2249 2633.59122,2250.82883 2629.96318,2254.48649 L2602.75289,2281.65766 L2576.32004,2255.00901 C2572.692,2251.52553 2568.54567,2249.56607 2563.88105,2249.13063 C2559.21643,2248.6952 2555.0701,2250.21922 2551.44206,2253.7027 C2547.81402,2257.36036 2546,2261.8018 2546,2267.02703 C2546,2272.25225 2547.81402,2276.69369 2551.44206,2280.35135 L2577.87491,2307 L2551.44206,2333.64865 C2547.81402,2337.30631 2546,2341.7042 2546,2346.84234 C2546,2351.98048 2547.81402,2356.37838 2551.44206,2360.03604 C2555.0701,2363.69369 2559.21643,2365.3048 2563.88105,2364.86937 C2568.54567,2364.43393 2572.692,2362.38739 2576.32004,2358.72973 L2602.75289,2332.08108 L2629.96318,2359.51351 C2633.59122,2363.17117 2637.9535,2365 2643.05003,2365 C2648.14656,2365 2652.50885,2363.17117 2656.13688,2359.51351 L2656.13688,2359.51351 Z" id="形状"></path>
        </g>
    </g>
</svg>