<?xml version="1.0" encoding="UTF-8"?>
<svg width="215px" height="171px" viewBox="0 0 215 171" version="1.1" xmlns="http://www.w3.org/2000/svg" xmlns:xlink="http://www.w3.org/1999/xlink">
    <title>微信</title>
    <g id="第一版" stroke="none" stroke-width="1" fill="none" fill-rule="evenodd">
        <g id="图标和元素说明" transform="translate(-2490, -1634)" fill="#747DEC" fill-rule="nonzero">
            <g id="微信" transform="translate(2490, 1634)">
                <path d="M93,113.816177 C93,141.320861 120.39172,163.632353 154,163.632353 C162.159236,163.632353 170.124204,162.28597 177.117834,159.977885 C179.060509,160.939587 193.047771,172.864695 196.156051,170.74895 C198.292994,169.017886 191.105095,156.131076 190.522293,153.82299 C205.286624,144.782989 215,130.165115 215,113.816177 C215,86.3114925 187.60828,64 154,64 C120.39172,64 93,86.3114923 93,113.816177 Z M166.821656,96.3131957 C166.821656,91.5046845 170.707006,87.6578755 175.563694,87.6578755 C180.420382,87.6578755 184.305732,91.5046845 184.305732,96.3131957 C184.305732,101.121707 180.420382,104.968516 175.563694,104.968516 C170.707006,104.968516 166.821656,101.121707 166.821656,96.3131957 L166.821656,96.3131957 Z M123.888535,96.3131957 C123.888535,91.5046845 127.773885,87.6578755 132.630573,87.6578755 C137.487261,87.6578755 141.372611,91.5046845 141.372611,96.3131957 C141.372611,101.121707 137.487261,104.968516 132.630573,104.968516 C127.773885,104.968516 123.888535,101.121707 123.888535,96.3131957 Z" id="形状"></path>
                <path d="M87.5652174,113.62238 C87.5652174,83.4263129 117.137681,59.037182 153.431159,59.037182 C155.351449,59.037182 157.271739,59.037182 159,59.2307465 C154.967391,25.9376472 120.978261,0 79.692029,0 C35.7173914,0 0,29.6153733 0,66.1990697 C0,87.8782972 12.673913,107.23475 32.0688407,119.235751 C31.3007247,122.139219 22.0833334,139.366462 24.7717391,141.689237 C28.8043477,144.39914 47.0471014,128.526849 49.5434783,127.365461 C58.7608696,130.462494 68.9384059,132.204575 79.692029,132.204575 C83.5326086,132.204575 87.3731885,132.01101 91.2137681,131.430317 C88.9094202,126.01051 87.5652174,120.010009 87.5652174,113.62238 Z M107.536232,30.970325 C113.873188,30.970325 119.057971,36.1965673 119.057971,42.5841969 C119.25,48.9718264 114.065217,54.1980688 107.536232,54.1980688 C101.199275,54.1980688 96.0144929,48.9718264 96.0144929,42.5841969 C96.0144929,36.1965673 101.199276,30.970325 107.536232,30.970325 Z M51.6557971,54.1980688 C45.3188406,54.1980688 40.1340581,48.9718264 40.1340581,42.5841969 C40.1340581,36.1965673 45.3188407,30.970325 51.6557971,30.970325 C57.9927534,30.970325 63.1775362,36.1965673 63.1775362,42.5841969 C63.1775362,48.9718264 57.9927536,54.1980688 51.6557971,54.1980688 Z" id="形状"></path>
            </g>
        </g>
    </g>
</svg>