<?xml version="1.0" encoding="UTF-8"?>
<svg width="227px" height="227px" viewBox="0 0 227 227" version="1.1" xmlns="http://www.w3.org/2000/svg" xmlns:xlink="http://www.w3.org/1999/xlink">
    <title>打勾_有圈</title>
    <g id="第一版" stroke="none" stroke-width="1" fill="none" fill-rule="evenodd">
        <g id="图标和元素说明" transform="translate(-2844, -2194)" fill="#FED565" fill-rule="nonzero">
            <g id="打勾_有圈" transform="translate(2844, 2194)">
                <path d="M113.5,0 C50.8156083,0 0,50.8156083 0,113.5 C0,176.184392 50.8156085,227 113.5,227 C176.184391,227 227,176.184391 227,113.5 C227,50.8156085 176.184392,0 113.5,0 Z M173.656814,84.935056 L108.117301,168.827363 C101.586128,177.187234 89.5504633,177.126597 83.1708823,168.615911 L51.7632557,126.717826 C48.0035034,121.702059 49.0213756,114.588356 54.0371428,110.828345 C59.0529099,107.068592 66.1668724,108.086465 69.9266244,113.102232 L95.6592511,149.325316 L155.768644,70.9597856 C159.627644,66.0202034 166.760523,65.1440769 171.700364,69.0030768 C176.639946,72.8623355 177.515814,79.9952147 173.656814,84.935056 Z" id="形状"></path>
            </g>
        </g>
    </g>
</svg>