<?xml version="1.0" encoding="UTF-8"?>
<svg width="188.585323px" height="189.350599px" viewBox="0 0 188.585323 189.350599" version="1.1" xmlns="http://www.w3.org/2000/svg" xmlns:xlink="http://www.w3.org/1999/xlink">
    <title>文化活动</title>
    <g id="第一版" stroke="none" stroke-width="1" fill="none" fill-rule="evenodd">
        <g id="图标和元素说明" transform="translate(-983.4337, -333.0476)">
            <g id="图标高亮" transform="translate(310, 258)">
                <rect id="矩形" stroke="#1D2A3B" fill="#FFFFFF" x="0.5" y="0.5" width="1345" height="306"></rect>
                <g id="文化活动" transform="translate(673.4337, 75.0476)" fill="#1D2A3B" fill-rule="nonzero">
                    <path d="M4.59292816,9.75308359 L4.59292816,9.75308359 C8.76933975,8.23299401 11.6175903,9.56115508 13.1376799,13.7375668 L73.7241053,180.197403 C75.2441949,184.373814 73.9160339,187.222065 69.7396223,188.742154 L69.7396223,188.742154 C65.5632107,190.262244 62.7149601,188.934083 61.1948705,184.757671 L0.60844515,18.2978354 C-0.911644433,14.1214238 0.41651657,11.2731732 4.59292816,9.75308359 Z" id="路径"></path>
                    <path d="M16.5948467,28.5904762 C42.0996086,13.3523809 63.6710371,5.7333334 81.3186561,5.7333332 C107.775799,5.7333332 124.118656,16.0857141 145.947228,16.0857143 C160.499608,16.0857143 174.709132,10.7238096 188.585323,0 L188.585323,97.2380951 C182.813894,107.838095 171.156751,113.133333 153.613894,113.133333 C127.299609,113.133333 118.871037,106.87619 90.9472276,106.87619 C72.3281799,106.87619 59.7091323,114 53.1091325,128.228571 L16.5948467,28.5904762 Z" id="路径"></path>
                </g>
            </g>
        </g>
    </g>
</svg>