<?xml version="1.0" encoding="UTF-8"?>
<svg width="220px" height="220px" viewBox="0 0 220 220" version="1.1" xmlns="http://www.w3.org/2000/svg" xmlns:xlink="http://www.w3.org/1999/xlink">
    <title>等待</title>
    <g id="第一版" stroke="none" stroke-width="1" fill="none" fill-rule="evenodd">
        <g id="图标和元素说明" transform="translate(-2847, -1912)" fill="#747DEC" fill-rule="nonzero">
            <g id="等待" transform="translate(2847, 1912)">
                <path d="M109.999748,0 C49.2494776,0 0,49.2515689 0,109.997354 C0,170.744652 49.2492257,220 109.999748,220 C170.750522,220 220,170.744652 220,109.997354 C220,49.2515689 170.750522,0 109.999748,0 Z M132.49409,72.6923021 L142.670456,62.5161811 C146.061402,57.9972124 152.846821,57.9972124 157.369175,62.5161811 C161.891528,65.9088095 161.891528,72.6923021 157.369175,77.2145465 L147.192809,87.3871399 C143.801863,91.9093843 137.019971,91.9093843 132.49409,87.3871399 C127.975264,83.9945116 127.975264,77.2145465 132.49409,72.6923021 Z M42.0520643,113.38973 L42.0520643,106.608002 C42.0520643,102.087521 45.4430104,99.824509 48.8339563,99.824509 L71.4497544,99.824509 C74.8407005,99.824509 78.2281187,103.215374 78.2281187,106.608002 L78.2281187,113.38973 C78.2281187,117.911975 74.8407005,120.174987 70.3145675,120.174987 L48.8337046,120.174987 C45.4430104,120.174987 42.0520643,116.780595 42.0520643,113.38973 Z M87.2730772,147.305682 L77.1002391,157.481803 C73.7057653,162.004048 66.9238733,162.004048 62.4012682,157.481803 C57.8824427,154.090939 57.8824427,147.305682 62.4012682,142.783438 L72.577634,132.607065 C75.9685801,128.088348 82.7504721,128.088348 87.2728253,132.607065 C91.7954303,136.001709 91.7954303,142.783438 87.2730772,147.305682 Z M87.2730772,87.3871397 C82.750724,91.9093841 75.968832,91.9093841 72.5778859,87.3871397 L62.4015201,77.2145463 C57.8826946,73.8201541 57.8826946,67.0401891 62.4015201,62.5161808 C65.7924662,57.9972122 72.5778859,57.9972122 77.100491,62.5161808 L87.2733291,72.6923019 C91.7954303,76.0831664 91.7954303,82.8664072 87.2730772,87.3871397 Z M120.061965,171.048789 C120.061965,174.439401 116.667491,177.830265 113.276545,177.830265 L106.494653,177.830265 C103.103455,177.830265 99.7089815,174.439401 99.7089815,171.048789 L99.7089815,149.568442 C99.7089815,146.17405 103.103707,142.783186 106.494653,142.783186 L113.276545,142.783186 C117.798899,142.783186 120.061965,145.042418 120.061965,149.568442 L120.061965,171.048789 Z M120.061965,70.42929 C120.061965,73.8201546 116.667491,77.2145465 113.276545,77.2145465 L106.494653,77.2145465 C103.103455,77.2145465 99.7089815,73.8201543 99.7089815,70.42929 L99.7089815,48.9509596 C99.7089815,45.5580793 101.972048,42.167215 106.494653,42.167215 L113.276545,42.167215 C117.798899,42.167215 120.061965,45.5580796 120.061965,48.9509596 L120.061965,70.42929 Z M157.369175,157.481803 C153.978228,162.004048 147.192809,162.004048 142.670456,157.481803 L132.49409,147.305682 C127.975012,143.914818 127.975012,137.133089 132.49409,132.607065 C135.888564,128.088348 142.670456,128.088348 147.192809,132.607065 L157.369175,142.783438 C161.891528,146.174302 161.891528,152.959307 157.369175,157.481803 Z M177.718378,113.38973 C177.718378,116.780595 174.327432,120.174987 170.936486,120.174987 L149.452348,120.174987 C146.061401,120.174987 142.670456,116.780595 142.670456,113.38973 L142.670456,106.608002 C142.670456,103.215373 146.061402,99.824509 149.452348,99.824509 L170.936486,99.824509 C174.327432,99.824509 177.718378,102.087269 177.718378,106.608002 L177.718378,113.38973 Z" id="形状"></path>
            </g>
        </g>
    </g>
</svg>