<?xml version="1.0" encoding="UTF-8"?>
<svg width="220px" height="220px" viewBox="0 0 220 220" version="1.1" xmlns="http://www.w3.org/2000/svg" xmlns:xlink="http://www.w3.org/1999/xlink">
    <title>谷歌</title>
    <g id="第一版" stroke="none" stroke-width="1" fill="none" fill-rule="evenodd">
        <g id="图标和元素说明" transform="translate(-2067, -1917)" fill="#747DEC" fill-rule="nonzero">
            <g id="谷歌" transform="translate(2067, 1917)">
                <path d="M47.5108619,111.027762 C47.5220476,104.040811 48.700491,97.1021816 51,90.4838526 L11.9011274,62 C-3.96704247,92.8389112 -3.96704247,129.161089 11.9011274,160 L50.9771953,131.471728 C48.7073411,124.878707 47.5520594,117.970412 47.5564714,111.016657" id="路径"></path>
                <path d="M110.746863,45.2204716 C125.619606,45.182823 140.057162,50.3209992 151.659984,59.7810264 L184,27.6213851 C157.969188,4.87092257 123.140867,-4.54002426 89.435452,2.06913561 C55.7300367,8.67829549 26.8420959,30.5831088 11,61.5442621 L48.379169,90 C57.53927,63.0092699 82.6320974,44.9833539 110.714142,45.2204716" id="路径"></path>
                <path d="M111.238074,174.785976 C83.0202205,175.008676 57.8077186,156.987287 48.581058,130 L11,158.448744 C30.2120399,196.50664 69.0090296,220.327408 111.238074,219.993415 C138.032494,220.291317 163.97479,210.472556 184,192.454143 L148.293063,165.125603 C137.054141,171.762127 124.213626,175.106729 111.205195,174.785976" id="路径"></path>
                <path d="M219.993362,109.686901 C219.893451,103.050655 219.029846,96.4466182 217.418921,90 L112,90 L112,131.841459 L172.643622,131.841459 C169.953246,145.340818 161.566334,157.098416 149.551329,164.214509 L185.671181,191 C208.508295,169.99094 220.995436,140.3596 219.937879,109.686901" id="路径"></path>
            </g>
        </g>
    </g>
</svg>