<?xml version="1.0" encoding="UTF-8"?>
<svg width="252.91561px" height="235px" viewBox="0 0 252.91561 235" version="1.1" xmlns="http://www.w3.org/2000/svg" xmlns:xlink="http://www.w3.org/1999/xlink">
    <title>路径</title>
    <g id="第一版" stroke="none" stroke-width="1" fill="none" fill-rule="evenodd">
        <g id="图标和元素说明" transform="translate(-2453.3516, -2531)" fill="#4A5562" fill-rule="nonzero">
            <path d="M2646.5282,2681.70402 C2649.38492,2694.84488 2651.90555,2706.73818 2654.0901,2717.38394 C2655.09836,2721.87512 2656.02259,2726.3663 2656.8628,2730.85748 C2657.70301,2735.34866 2658.50121,2739.42399 2659.2574,2743.08347 C2660.01359,2746.74295 2660.64375,2749.86182 2661.14788,2752.44009 C2661.652,2755.01836 2661.98809,2756.64018 2662.15613,2757.30554 C2662.66026,2760.63234 2661.90407,2762.83634 2659.88756,2763.91755 C2657.87105,2764.99876 2655.60248,2765.53937 2653.08185,2765.53937 C2652.24164,2765.53937 2651.02333,2765.24827 2649.42693,2764.66608 C2647.83053,2764.08389 2646.61222,2763.62646 2645.77201,2763.29378 L2579.98346,2725.36826 C2568.05246,2732.35454 2557.21374,2738.59229 2547.46729,2744.08151 C2543.26623,2746.41027 2539.10718,2748.73903 2534.99015,2751.06779 C2530.87311,2753.39655 2527.13417,2755.55897 2523.77333,2757.55505 C2520.41248,2759.55113 2517.51375,2761.21453 2515.07714,2762.54525 C2512.64053,2763.87597 2511.00211,2764.70767 2510.1619,2765.04035 C2508.48148,2765.87205 2506.75905,2766.16314 2504.9946,2765.91363 C2503.23016,2765.66412 2501.63376,2765.04035 2500.2054,2764.04231 C2498.77704,2763.04427 2497.72678,2761.8383 2497.05461,2760.42441 C2496.38244,2759.01052 2496.2144,2757.55505 2496.55048,2756.05799 C2496.71852,2755.39263 2497.13863,2753.77081 2497.8108,2751.19254 C2498.48297,2748.61427 2499.23916,2745.53698 2500.07937,2741.96067 C2500.91958,2738.38437 2501.88582,2734.43379 2502.9781,2730.10895 C2504.07037,2725.78411 2505.20466,2721.3761 2506.38095,2716.88492 C2508.90159,2706.57184 2511.7583,2694.92805 2514.95111,2681.95353 C2505.03661,2673.47019 2496.13037,2665.90172 2488.23239,2659.24812 C2484.87154,2656.42034 2481.55271,2653.63415 2478.27588,2650.88954 C2474.99906,2648.14493 2472.05832,2645.64983 2469.45366,2643.40424 C2466.84901,2641.15865 2464.70647,2639.32891 2463.02605,2637.91502 C2461.34563,2636.50113 2460.42139,2635.71101 2460.25335,2635.54467 C2458.23684,2633.71494 2456.51441,2631.67727 2455.08605,2629.43168 C2453.65769,2627.18609 2453.11155,2624.89892 2453.44764,2622.57016 C2453.78372,2620.2414 2454.70796,2618.41166 2456.22034,2617.08094 C2457.73272,2615.75022 2459.41314,2614.91852 2461.2616,2614.58584 L2539.14919,2607.59956 L2568.13648,2540.73089 C2569.14474,2538.06945 2570.5731,2535.78227 2572.42156,2533.86936 C2574.27003,2531.95645 2576.79066,2531 2579.98346,2531 C2581.66389,2531 2583.13426,2531.37426 2584.39457,2532.12279 C2585.65489,2532.87132 2586.70515,2533.74461 2587.54537,2534.74265 C2588.38558,2535.74069 2589.09976,2536.73873 2589.6879,2537.73677 C2590.27605,2538.73481 2590.73817,2539.56651 2591.07425,2540.23187 L2619.30535,2607.10054 L2697.19294,2614.33633 C2700.55379,2615.16803 2702.90638,2616.16607 2704.25072,2617.33045 C2705.59506,2618.49483 2706.26723,2620.32457 2706.26723,2622.81967 C2706.26723,2625.14843 2705.55305,2627.18609 2704.12469,2628.93266 C2702.69633,2630.67923 2700.88987,2632.80006 2698.70532,2635.29516 L2646.5282,2681.70402 Z" id="路径"></path>
        </g>
    </g>
</svg>