<?xml version="1.0" encoding="UTF-8"?>
<svg width="227px" height="171px" viewBox="0 0 227 171" version="1.1" xmlns="http://www.w3.org/2000/svg" xmlns:xlink="http://www.w3.org/1999/xlink">
    <title>邮件</title>
    <g id="第一版" stroke="none" stroke-width="1" fill="none" fill-rule="evenodd">
        <g id="图标和元素说明" transform="translate(-2849, -1634)" fill="#747DEC" fill-rule="nonzero">
            <g id="邮件" transform="translate(2849, 1634)">
                <path d="M30.4227574,151.738711 C31.297653,151.909711 32.2056527,151.999961 33.132569,151.999961 L193.867431,151.999961 C194.931493,151.999961 195.971909,151.881211 196.969763,151.662711 L143.582219,98.0352426 L127.748974,113.942983 C124.207769,117.500155 119.40388,119.497401 114.395601,119.494728 C109.387322,119.492055 104.585549,117.489683 101.048108,113.928733 L84.5575098,97.365493 L30.4227574,151.738711 Z M18.9166989,136.42472 L71.1834311,83.927751 L19.0207406,31.540032 C18.952976,32.1011524 18.9182351,32.6658 18.9166989,33.2310311 L18.9166989,136.42472 Z M208.083301,135.94972 L208.083301,33.259531 L156.961027,84.6070005 L208.083301,135.95447 L208.083301,135.94972 Z M33.2933606,19.0000359 L111.069209,97.1232431 C112.885209,98.942492 115.897687,98.9757419 117.737332,97.1232431 L195.437514,19.0855394 C194.916105,19.0282075 194.391955,19.0000359 193.867431,19.0000359 L33.2886315,19.0000359 L33.2933606,19.0000359 Z M1.92895859e-05,28.5237839 C-0.00372866538,20.9568369 2.98770145,13.698795 8.31531872,8.34860031 C13.642936,2.99840565 20.8696443,-0.00499322675 28.403404,2.5277046e-05 L198.596596,2.5277046e-05 C206.131895,-0.0100492005 213.361529,2.9917258 218.690239,8.34301741 C224.018948,13.694309 227.008762,20.9552897 226.999981,28.5237839 L226.999981,142.476216 C227.003729,150.043163 224.012298,157.301205 218.684681,162.6514 C213.357064,168.001594 206.130356,171.004993 198.596596,170.999975 L28.403404,170.999975 C20.8681047,171.010049 13.6384709,168.008274 8.3097613,162.656983 C2.9810517,157.305691 -0.00876216443,150.04471 1.92895859e-05,142.476216 L1.92895859e-05,28.5237839 L1.92895859e-05,28.5237839 Z" id="形状"></path>
            </g>
        </g>
    </g>
</svg>