<?xml version="1.0" encoding="UTF-8"?>
<svg width="200.016667px" height="199.993672px" viewBox="0 0 200.016667 199.993672" version="1.1" xmlns="http://www.w3.org/2000/svg" xmlns:xlink="http://www.w3.org/1999/xlink">
    <title>重新生成初始密码</title>
    <g id="第一版" stroke="none" stroke-width="1" fill="none" fill-rule="evenodd">
        <g id="图标和元素说明" transform="translate(-626.0167, -1629.0032)" fill="#1D2A3B" fill-rule="nonzero">
            <g id="功能图标" transform="translate(370, 1629)">
                <g id="重新生成初始密码" transform="translate(256.0167, 0.0032)">
                    <path d="M10.1166668,52.5968358 C10.1166668,52.5968358 28.35,24.4801692 57.1166668,9.41350238 C85.9666668,-5.66983083 121.45,-1.33649762 144.7,13.2801692 C168,27.8968358 175.833333,40.2468358 175.833333,40.2468358 L195.866667,28.8135024 C195.866667,28.8135024 200.016667,26.7635024 200.016667,31.5635024 L200.016667,103.313502 C200.016667,103.313502 200.016667,109.713502 195.166667,107.413502 C191.116667,105.496836 147.066667,80.4468358 133.2,72.5635024 C125.6,69.1468358 132.266667,66.3968358 132.266667,66.3968358 L151.633333,55.3301692 C151.633333,55.3301692 140.583333,41.4968358 124.45,34.1635024 C107.15,25.1635024 90.9833334,24.080169 71.15,31.5968358 C58.2166666,36.4635024 42.9833334,48.9801692 32.0333334,67.4301692 L10.1333334,52.5968358 L10.1166668,52.5968358 Z M189.866667,147.413502 C189.866667,147.413502 171.65,175.513502 142.866667,190.580169 C114.066667,205.663503 78.5666668,201.330169 55.3166668,186.713502 C32,172.096836 24.1666668,159.730169 24.1666668,159.730169 L4.1166668,171.163502 C4.1166668,171.163502 0,173.213502 0,168.446836 L0,96.6635024 C0,96.6635024 0,90.280169 4.85,92.5468358 C8.9,94.4635024 52.9333334,119.513502 66.8166668,127.430169 C74.4166668,130.813503 67.7333334,133.596836 67.7333334,133.596836 L48.3666668,144.663502 C48.3666668,144.663502 59.4333334,158.480169 75.5666668,165.796836 C92.8500002,174.813502 109.033333,175.880169 128.85,168.380169 C141.783333,163.513503 157.016667,151.013503 167.966667,132.546836 L189.866667,147.380169 L189.866667,147.413502 Z" id="形状"></path>
                </g>
            </g>
        </g>
    </g>
</svg>